<?xml version="1.0" encoding="utf-8"?>
<!-- Generator: Adobe Illustrator 24.0.3, SVG Export Plug-In . SVG Version: 6.00 Build 0)  -->
<svg version="1.1"
	 id="Layer_1" inkscape:version="0.91 r13725" sodipodi:docname="Icon_Twitter.svg" xmlns:cc="http://creativecommons.org/ns#" xmlns:dc="http://purl.org/dc/elements/1.1/" xmlns:inkscape="http://www.inkscape.org/namespaces/inkscape" xmlns:rdf="http://www.w3.org/1999/02/22-rdf-syntax-ns#" xmlns:sodipodi="http://sodipodi.sourceforge.net/DTD/sodipodi-0.dtd" xmlns:svg="http://www.w3.org/2000/svg"
	 xmlns="http://www.w3.org/2000/svg" xmlns:xlink="http://www.w3.org/1999/xlink" x="0px" y="0px" viewBox="0 0 60.8 60.9"
	 style="enable-background:new 0 0 60.8 60.9;" xml:space="preserve">
<style type="text/css">
	.st0{display:none;}
	.st1{fill:#F1615F;}
	.st2{fill-rule:evenodd;clip-rule:evenodd;fill:#FFFFFF;}
	.st3{fill:none;}
</style>
<sodipodi:namedview  bordercolor="#666666" borderlayer="true" borderopacity="1" gridtolerance="10" guidetolerance="10" id="namedview7" inkscape:current-layer="Layer_1" inkscape:cx="43.175985" inkscape:cy="38.934452" inkscape:pageopacity="0" inkscape:pageshadow="2" inkscape:showpageshadow="false" inkscape:window-height="719" inkscape:window-maximized="1" inkscape:window-width="1366" inkscape:window-x="-8" inkscape:window-y="-8" inkscape:zoom="3.8752052" objecttolerance="10" pagecolor="#ffffff" showgrid="false">
	</sodipodi:namedview>
<g id="layer1" inkscape:groupmode="layer" inkscape:label="Layer 1" class="st0">
</g>
<g id="layer2" inkscape:groupmode="layer" inkscape:label="Layer 2" class="st0">
</g>
<g id="g4172">
	<path id="path5" inkscape:connector-curvature="0" sodipodi:nodetypes="sssss" class="st1" d="M30.5,60.5c-16.6,0-30-13.4-30-30
		s13.4-30,30-30s30,13.4,30,30S47.1,60.5,30.5,60.5z"/>
	<path id="twitter" inkscape:connector-curvature="0" sodipodi:nodetypes="ccscscscscsscsscscsscsccc" class="st2" d="M38.1,28.5
		c1.1,0,2-0.4,2.7-1.2c0.8-0.8,1.1-1.8,1.1-2.9c0-1.1-0.4-2.1-1.1-2.9c-0.8-0.8-1.7-1.2-2.8-1.2H26.6v-4.1c0-1.1-0.4-2.1-1.1-2.9
		c-0.8-0.8-1.7-1.2-2.7-1.2c-1.1,0-2,0.4-2.8,1.2c-0.8,0.8-1.1,1.8-1.1,2.9v16.5c0,3.4,1.1,6.3,3.4,8.7c2.3,2.4,5,3.6,8.2,3.6h7.7
		c1.1,0,2-0.4,2.7-1.2c0.8-0.8,1.1-1.8,1.1-2.9c0-1.1-0.4-2.1-1.1-2.9c-0.8-0.8-1.7-1.2-2.7-1.2h-7.7c-1.1,0-2-0.4-2.7-1.2
		c-0.7-0.8-1.1-1.8-1.1-2.9v-4.1L38.1,28.5L38.1,28.5z"/>
	<rect id="rect3343" x="18.8" y="13.4" class="st3" width="26.7" height="31.7"/>
	<rect id="rect3345" x="30.8" y="13.2" class="st3" width="0.5" height="21.1"/>
	<rect id="rect3347" x="5.9" y="5" class="st3" width="48.2" height="38"/>
</g>
</svg>
