<svg xmlns="http://www.w3.org/2000/svg" enable-background="new 0 0 512 512" viewBox="0 0 512 512"><path fill="none" d="M345.7,292.3c-1-0.2-2.1-0.4-3.1-0.5c-7.4-0.9-12.2-1.3-16.7,0.6c-4.7,2-10.5,7.1-14.9,12.9
		c-2.7,3.7-7.6,5-11.8,3.2c-14.3-6-26.9-12.7-37.2-20.1c-10.3-7.3-18.7-15.4-24.9-23.9c-14.2-15.8-24.3-39.4-30.1-70.3
		c-0.8-4.5,1.5-9,5.6-10.9c6.7-3.1,12.8-7.7,15.8-11.9c2.8-4,3.4-8.8,4.1-16.2c0.1-1,0.1-2.1,0.1-3.1c0-10.2-3.3-24.4-12.5-30.9
		c-4.9-3.4-13.8-3.5-21.1-3.5c-0.1,0-0.2,0-0.3,0h-0.4c-5,0-9.9,1.1-14.4,3.2c-5.5,2.5-10.2,6.5-13.7,11.4
		c-3.5,4.9-5.6,10.7-6.1,16.7c-1.8,19.9,0.4,39.4,6.7,57.9c7,20.8,18.9,51.5,40.8,77.3c0.1,0.1,0.2,0.3,0.3,0.4
		c16,20.8,38,39.3,67.4,56.8c16.8,10,35.4,16.3,55.2,18.6c6,0.7,12.1-0.1,17.6-2.5c5.5-2.4,10.4-6.2,14-11c3-4,5.1-8.6,6.1-13.4
		c0,0,0,0,0,0l0.1-0.3c1.5-7.2,3.5-16.2,1.1-21.7C368.8,300.6,355.6,294.4,345.7,292.3z"/><path fill="none" d="M262.6,26C144.7,26,48.9,121.9,48.9,239.7c0,46.1,14.5,90.1,41.9,127c2.2,2.9,2.6,6.8,1,10.1l-45.6,98.6
		l105-48.5c2.9-1.3,6.2-1.2,9,0.3c31.1,17.1,66.5,26.1,102.3,26.1c117.8,0,213.7-95.9,213.7-213.7S380.4,26,262.6,26z M391.7,337
		l-0.1,0.3c-1.6,7.7-5,15-9.7,21.3c-5.7,7.6-13.4,13.6-22.1,17.4c-6.8,2.9-14,4.4-21.3,4.4c-2.2,0-4.4-0.1-6.6-0.4
		c-22.6-2.7-43.8-9.9-63-21.3c-31.5-18.7-55.3-38.9-72.9-61.6c-24.1-28.4-36.9-61.4-44.4-83.7c-7.1-21.2-9.7-43.5-7.6-66.1
		c0.9-9.5,4.2-18.6,9.7-26.4c5.5-7.8,13-14,21.6-18c7.2-3.3,14.9-5,22.8-5h0.3c9.6,0,22.9,0,33,7.1c13.2,9.3,21,26.9,21,47.2
		c0,1.6-0.1,3.3-0.2,4.9c-0.8,8.2-1.6,17.4-7.6,26c-3.7,5.3-9.7,10.5-16.6,14.7c5.2,23.9,13.3,41.9,24.2,53.8
		c0.3,0.3,0.5,0.6,0.7,0.9c5,6.9,11.9,13.6,20.6,19.7c7.5,5.3,16.5,10.4,26.6,15c5.6-5.9,11.9-10.6,17.9-13.2c9.6-4.1,18.8-3,27-2.1
		c1.7,0.2,3.4,0.5,4.9,0.8c19.8,4.2,35.4,15.6,41.7,30.4C396.5,314.6,393.7,327.5,391.7,337z"/><path fill="#231f20" d="M427.8,74.4C383.7,30.3,325,6,262.6,6C200.2,6,141.5,30.3,97.3,74.4c-44.1,44.1-68.4,102.8-68.4,165.2
		c0,48.5,14.6,94.7,42.3,134.1l-54.5,118c-1.8,3.8-1,8.3,2,11.3c1.9,1.9,4.5,2.9,7.1,2.9c1.4,0,2.8-0.3,4.2-0.9l125.2-57.8
		c33,17.1,70,26.1,107.5,26.1c62.4,0,121.1-24.3,165.2-68.4c44.1-44.1,68.4-102.8,68.4-165.2C496.3,177.3,472,118.6,427.8,74.4z
		 M262.6,453.4c-35.8,0-71.2-9-102.3-26.1c-2.8-1.5-6.1-1.6-9-0.3l-105,48.5l45.6-98.6c1.5-3.3,1.1-7.2-1-10.1
		c-27.4-37-41.9-80.9-41.9-127C48.9,121.9,144.7,26,262.6,26c117.8,0,213.7,95.9,213.7,213.7S380.4,453.4,262.6,453.4z"/><path fill="#231f20" d="M349.9,272.8c-1.6-0.3-3.2-0.6-4.9-0.8c-8.1-1-17.3-2.1-27,2.1c-5.9,2.5-12.3,7.3-17.9,13.2
		c-10.2-4.6-19.1-9.7-26.6-15c-8.7-6.2-15.6-12.8-20.6-19.7c-0.2-0.3-0.5-0.6-0.7-0.9c-10.8-11.8-18.9-29.9-24.2-53.8
		c6.9-4.2,12.9-9.4,16.6-14.7c6-8.6,6.9-17.8,7.6-26c0.1-1.6,0.2-3.3,0.2-4.9c0-20.3-7.9-38-21-47.2c-10.1-7.1-23.4-7.1-33-7.1h-0.3
		c-7.9,0-15.6,1.7-22.8,5c-8.7,4-16.2,10.2-21.6,18c-5.5,7.8-8.9,16.9-9.7,26.4c-2.1,22.7,0.5,44.9,7.6,66.1
		c7.5,22.3,20.3,55.3,44.4,83.7c17.5,22.7,41.4,42.9,72.9,61.6c19.3,11.4,40.5,18.6,63,21.3c2.2,0.3,4.4,0.4,6.6,0.4
		c7.3,0,14.6-1.5,21.3-4.4c8.8-3.7,16.4-9.8,22.1-17.4c4.7-6.2,8.1-13.6,9.7-21.3l0.1-0.3c2-9.4,4.8-22.4-0.1-33.8
		C385.3,288.4,369.7,277,349.9,272.8z M372.1,332.8l-0.1,0.3c0,0,0,0,0,0c-1,4.8-3.1,9.5-6.1,13.4c-3.6,4.8-8.5,8.6-14,11
		c-5.5,2.4-11.6,3.2-17.6,2.5c-19.8-2.4-38.4-8.7-55.2-18.6c-29.4-17.4-51.4-36-67.4-56.8c-0.1-0.1-0.2-0.3-0.3-0.4
		c-22-25.8-33.8-56.5-40.8-77.3c-6.3-18.6-8.5-38-6.7-57.9c0.5-6,2.7-11.8,6.1-16.7c3.5-4.9,8.2-8.8,13.7-11.4
		c4.6-2.1,9.4-3.2,14.4-3.2h0.4c0.1,0,0.2,0,0.3,0c7.3,0,16.3,0.1,21.1,3.5c9.3,6.5,12.5,20.7,12.5,30.9c0,1,0,2.1-0.1,3.1
		c-0.7,7.5-1.2,12.2-4.1,16.2c-2.9,4.1-9.1,8.8-15.8,11.9c-4.2,1.9-6.5,6.4-5.6,10.9c5.8,30.9,15.9,54.5,30.1,70.3
		c6.2,8.6,14.6,16.6,24.9,23.9c10.3,7.3,22.8,14.1,37.2,20.1c4.2,1.8,9.1,0.4,11.8-3.2c4.4-5.9,10.2-10.9,14.9-12.9
		c4.5-1.9,9.3-1.5,16.7-0.6c1.1,0.1,2.1,0.3,3.1,0.5c9.9,2.1,23.1,8.3,27.6,18.7C375.6,316.6,373.7,325.6,372.1,332.8z"/></svg>